<svg version="1.1" viewBox="0.0 0.0 960.0 720.0" fill="none" stroke="none" stroke-linecap="square" stroke-miterlimit="10" xmlns:xlink="http://www.w3.org/1999/xlink" xmlns="http://www.w3.org/2000/svg"><clipPath id="p.0"><path d="m0 0l960.0 0l0 720.0l-960.0 0l0 -720.0z" clip-rule="nonzero"/></clipPath><g clip-path="url(#p.0)"><path fill="#000000" fill-opacity="0.0" d="m0 0l960.0 0l0 720.0l-960.0 0z" fill-rule="evenodd"/><path fill="#ffffff" d="m41.057743 277.36484l0 0c0 -138.84526 161.45952 -251.40158 360.6299 -251.40158l0 0c199.17044 0 360.6299 112.55632 360.6299 251.40158l0 0c0 138.84525 -161.45947 251.40158 -360.6299 251.40158l0 0c-199.1704 0 -360.6299 -112.556335 -360.6299 -251.40158z" fill-rule="evenodd"/><path stroke="#000000" stroke-width="4.0" stroke-linejoin="round" stroke-linecap="butt" d="m41.057743 277.36484l0 0c0 -138.84526 161.45952 -251.40158 360.6299 -251.40158l0 0c199.17044 0 360.6299 112.55632 360.6299 251.40158l0 0c0 138.84525 -161.45947 251.40158 -360.6299 251.40158l0 0c-199.1704 0 -360.6299 -112.556335 -360.6299 -251.40158z" fill-rule="evenodd"/><defs><radialGradient id="p.1" gradientUnits="userSpaceOnUse" gradientTransform="matrix(15.661549116703243 0.0 0.0 15.661549116703243 0.0 0.0)" spreadMethod="pad" cx="25.348824978664503" cy="17.71006744028277" fx="25.348824978664503" fy="17.71006744028277" r="15.66154956817627"><stop offset="0.0" stop-color="#ffc002"/><stop offset="1.0" stop-color="#795b04"/></radialGradient></defs><path fill="url(#p.1)" d="m220.65541 277.3671l0 0c0 -94.158035 78.95299 -170.48819 176.34645 -170.48819l0 0c46.76999 0 91.62442 17.962097 124.69577 49.934837c33.07141 31.972733 51.650696 75.33708 51.650696 120.55336l0 0c0 94.15802 -78.953 170.48819 -176.34647 170.48819l0 0c-97.39346 0 -176.34645 -76.33017 -176.34645 -170.48819z" fill-rule="evenodd"/><path stroke="#000000" stroke-width="3.0" stroke-linejoin="round" stroke-linecap="butt" d="m220.65541 277.3671l0 0c0 -94.158035 78.95299 -170.48819 176.34645 -170.48819l0 0c46.76999 0 91.62442 17.962097 124.69577 49.934837c33.07141 31.972733 51.650696 75.33708 51.650696 120.55336l0 0c0 94.15802 -78.953 170.48819 -176.34647 170.48819l0 0c-97.39346 0 -176.34645 -76.33017 -176.34645 -170.48819z" fill-rule="evenodd"/><path fill="#000000" d="m336.54245 277.38165l0 0c0 -37.24225 27.067383 -67.43306 60.456696 -67.43306l0 0c16.034119 0 31.41153 7.104538 42.74936 19.750687c11.33783 12.646149 17.707336 29.798035 17.707336 47.682373l0 0c0 37.24228 -27.067383 67.433075 -60.456696 67.433075l0 0c-33.389313 0 -60.456696 -30.190796 -60.456696 -67.433075z" fill-rule="evenodd"/><path stroke="#000000" stroke-width="16.0" stroke-linejoin="round" stroke-linecap="butt" d="m336.54245 277.38165l0 0c0 -37.24225 27.067383 -67.43306 60.456696 -67.43306l0 0c16.034119 0 31.41153 7.104538 42.74936 19.750687c11.33783 12.646149 17.707336 29.798035 17.707336 47.682373l0 0c0 37.24228 -27.067383 67.433075 -60.456696 67.433075l0 0c-33.389313 0 -60.456696 -30.190796 -60.456696 -67.433075z" fill-rule="evenodd"/></g></svg>