<svg version="1.1" viewBox="0.0 0.0 960.0 720.0" fill="none" stroke="none" stroke-linecap="square" stroke-miterlimit="10" xmlns:xlink="http://www.w3.org/1999/xlink" xmlns="http://www.w3.org/2000/svg"><clipPath id="p.0"><path d="m0 0l960.0 0l0 720.0l-960.0 0l0 -720.0z" clip-rule="nonzero"/></clipPath><g clip-path="url(#p.0)"><path fill="#000000" fill-opacity="0.0" d="m0 0l960.0 0l0 720.0l-960.0 0z" fill-rule="evenodd"/><defs><radialGradient id="p.1" gradientUnits="userSpaceOnUse" gradientTransform="matrix(19.873908420146964 0.0 0.0 19.873908420146964 0.0 0.0)" spreadMethod="pad" cx="15.103871431109713" cy="13.96932217148186" fx="15.103871431109713" fy="13.96932217148186" r="19.87390899658203"><stop offset="0.0" stop-color="#db0000"/><stop offset="1.0" stop-color="#540303"/></radialGradient></defs><path fill="url(#p.1)" d="m105.98014 426.72037l-24.00093 14.306183l-44.730675 -7.7014465l46.91146 -34.111237l1.0904007 -72.6246l-29.455967 1.1028442l-45.818016 -37.413605l46.91147 0l41.456432 -30.808868l20.726685 -31.911697l-41.45643 -35.211l-15.271656 -42.912445l36.0014 19.80812l52.3665 2.1995392l42.54683 -20.907883l-36.001404 -37.410538l-21.820145 -57.218643l2.1808014 -46.21482l20.729736 37.413612l38.18524 37.41053l49.09227 23.107414l39.275635 4.4021454l51.276093 -2.2026138l37.091797 4.4021454l45.821075 18.705269l17.455505 -37.410538l17.455505 -17.6055l3.2711792 34.111237l4.364624 38.5103l19.639343 28.609314l26.181732 24.207184l24.000946 11.003815l-6.545471 23.107422l2.1808472 31.911682l28.36554 31.90863l34.91101 20.907898l-50.18268 60.517944l-1.0934448 -37.410553l-25.091309 15.402893l3.274231 -33.008392l-61.095764 -27.509552l30.546356 85.82489l30.549408 12.106659l-42.549866 14.303131l-22.910553 -5.5019226l-21.817078 -51.716736l-72.00586 -68.21936l-30.546356 -15.405975l-43.637207 5.501892l-24.003998 25.306946l-5.4519806 36.31079l14.181259 34.111206l67.641205 56.118896l117.82388 78.12344l31.63675 27.509552l-296.7435 11.003845l-66.54776 -81.42584z" fill-rule="evenodd"/><path stroke="#000000" stroke-width="4.0" stroke-linejoin="round" stroke-linecap="butt" d="m105.98014 426.72037l-24.00093 14.306183l-44.730675 -7.7014465l46.91146 -34.111237l1.0904007 -72.6246l-29.455967 1.1028442l-45.818016 -37.413605l46.91147 0l41.456432 -30.808868l20.726685 -31.911697l-41.45643 -35.211l-15.271656 -42.912445l36.0014 19.80812l52.3665 2.1995392l42.54683 -20.907883l-36.001404 -37.410538l-21.820145 -57.218643l2.1808014 -46.21482l20.729736 37.413612l38.18524 37.41053l49.09227 23.107414l39.275635 4.4021454l51.276093 -2.2026138l37.091797 4.4021454l45.821075 18.705269l17.455505 -37.410538l17.455505 -17.6055l3.2711792 34.111237l4.364624 38.5103l19.639343 28.609314l26.181732 24.207184l24.000946 11.003815l-6.545471 23.107422l2.1808472 31.911682l28.36554 31.90863l34.91101 20.907898l-50.18268 60.517944l-1.0934448 -37.410553l-25.091309 15.402893l3.274231 -33.008392l-61.095764 -27.509552l30.546356 85.82489l30.549408 12.106659l-42.549866 14.303131l-22.910553 -5.5019226l-21.817078 -51.716736l-72.00586 -68.21936l-30.546356 -15.405975l-43.637207 5.501892l-24.003998 25.306946l-5.4519806 36.31079l14.181259 34.111206l67.641205 56.118896l117.82388 78.12344l31.63675 27.509552l-296.7435 11.003845l-66.54776 -81.42584z" fill-rule="evenodd"/><defs><radialGradient id="p.2" gradientUnits="userSpaceOnUse" gradientTransform="matrix(21.811268263230247 -8.09958704633576 8.09958704633576 21.811268263230247 0.0 0.0)" spreadMethod="pad" cx="15.655755740179913" cy="24.35935181618241" fx="15.655755740179913" fy="24.35935181618241" r="21.811267852783203"><stop offset="0.0" stop-color="#ffffff"/><stop offset="0.24" stop-color="#ffff00"/><stop offset="0.4" stop-color="#ff9900"/><stop offset="1.0" stop-color="#cc0000"/></radialGradient></defs><path fill="url(#p.2)" d="m538.7726 404.5032l81.78021 150.858l118.967896 119.51904l118.47577 26.154419l73.55768 -41.93158l14.676941 -93.13806l-62.960632 52.612366l-80.111084 -8.255737l-32.724487 -34.61743l24.46814 -93.85245l-12.196289 -33.4758l-20.004944 27.896118l-69.79254 20.06607l-60.777405 -24.199951l-9.640503 -40.268036z" fill-rule="evenodd"/><path stroke="#000000" stroke-width="2.0" stroke-linejoin="round" stroke-linecap="butt" d="m538.7726 404.5032l81.78021 150.858l118.967896 119.51904l118.47577 26.154419l73.55768 -41.93158l14.676941 -93.13806l-62.960632 52.612366l-80.111084 -8.255737l-32.724487 -34.61743l24.46814 -93.85245l-12.196289 -33.4758l-20.004944 27.896118l-69.79254 20.06607l-60.777405 -24.199951l-9.640503 -40.268036z" fill-rule="evenodd"/></g></svg>