<svg version="1.1" viewBox="0.0 0.0 960.0 720.0" fill="none" stroke="none" stroke-linecap="square" stroke-miterlimit="10" xmlns:xlink="http://www.w3.org/1999/xlink" xmlns="http://www.w3.org/2000/svg"><clipPath id="p.0"><path d="m0 0l960.0 0l0 720.0l-960.0 0l0 -720.0z" clip-rule="nonzero"/></clipPath><g clip-path="url(#p.0)"><path fill="#000000" fill-opacity="0.0" d="m0 0l960.0 0l0 720.0l-960.0 0z" fill-rule="evenodd"/><defs><linearGradient id="p.1" gradientUnits="userSpaceOnUse" gradientTransform="matrix(20.73540502217803 -3.297159107114899 3.297159107114899 20.73540502217803 0.0 0.0)" spreadMethod="pad" x1="13.243852305596581" y1="8.261195256670439" x2="13.243778081670381" y2="28.996600278715622"><stop offset="0.0" stop-color="#ffc002"/><stop offset="1.0" stop-color="#795b04"/></linearGradient></defs><path fill="url(#p.1)" d="m360.0121 493.3737l103.53314 -37.932465l30.478668 -32.037994l-2.0570374 -39.74698l-29.535583 -42.538116l13.769989 50.76703l-29.866302 -26.738007l-18.153381 -51.50052l8.381348 -45.7023l-22.927155 43.719727l10.988342 -56.13437l45.187805 -55.84645l-49.851807 26.531525l34.753296 -49.891754l59.288483 -20.879547l-58.123383 -16.518784l41.855804 -5.2250366l63.84381 25.630707l-10.87915 -32.62217l10.602356 -31.742455l27.81311 -13.009613l-18.430481 27.261208l11.545044 36.807777l41.13916 34.96701l30.14679 19.536865l8.992798 38.644135l44.634033 30.115768l-1.6090698 34.60794l-22.038696 13.521912l-26.593323 -32.984436l-46.57837 -15.493591l-37.41382 -2.6377869l-2.664978 -16.750275l2.8829956 -17.636475l-12.156921 -13.81044l-30.976746 2.0646362l-18.87445 24.470795l2.777649 35.3369l27.201355 45.770264l23.651733 23.434692l8.439514 53.045135l-21.427368 62.085785l-32.866882 43.86978l-45.962524 33.07361z" fill-rule="evenodd"/><path stroke="#000000" stroke-width="4.0" stroke-linejoin="round" stroke-linecap="butt" d="m360.0121 493.3737l103.53314 -37.932465l30.478668 -32.037994l-2.0570374 -39.74698l-29.535583 -42.538116l13.769989 50.76703l-29.866302 -26.738007l-18.153381 -51.50052l8.381348 -45.7023l-22.927155 43.719727l10.988342 -56.13437l45.187805 -55.84645l-49.851807 26.531525l34.753296 -49.891754l59.288483 -20.879547l-58.123383 -16.518784l41.855804 -5.2250366l63.84381 25.630707l-10.87915 -32.62217l10.602356 -31.742455l27.81311 -13.009613l-18.430481 27.261208l11.545044 36.807777l41.13916 34.96701l30.14679 19.536865l8.992798 38.644135l44.634033 30.115768l-1.6090698 34.60794l-22.038696 13.521912l-26.593323 -32.984436l-46.57837 -15.493591l-37.41382 -2.6377869l-2.664978 -16.750275l2.8829956 -17.636475l-12.156921 -13.81044l-30.976746 2.0646362l-18.87445 24.470795l2.777649 35.3369l27.201355 45.770264l23.651733 23.434692l8.439514 53.045135l-21.427368 62.085785l-32.866882 43.86978l-45.962524 33.07361z" fill-rule="evenodd"/><defs><linearGradient id="p.2" gradientUnits="userSpaceOnUse" gradientTransform="matrix(19.648995292824903 -10.239117610288579 10.239117610288579 19.648995292824903 0.0 0.0)" spreadMethod="pad" x1="0.46691698225257" y1="8.971844567537483" x2="0.46684586628611635" y2="28.620839860233687"><stop offset="0.0" stop-color="#ffc002"/><stop offset="1.0" stop-color="#795b04"/></linearGradient></defs><path fill="url(#p.2)" d="m272.17847 499.9272l86.1568 -68.805725l18.74408 -40.04904l-14.556488 -37.042572l-41.501312 -30.9758l29.159576 43.779327l-36.803986 -15.886536l-33.549255 -43.08493l-6.545807 -46.00058l-7.877655 48.733032l-7.381958 -56.72075l25.142883 -67.292755l-38.863205 40.970352l17.135696 -58.33658l49.605072 -38.602676l-60.36093 2.7657166l38.037384 -18.228271l68.67578 4.0617447l-20.663422 -27.487991l-0.012145996 -33.465763l22.250977 -21.15783l-8.832977 31.698277l22.622406 31.24633l50.104553 20.115944l34.786194 8.968262l20.784302 33.79724l51.8804 14.406891l9.44989 33.331406l-16.612244 19.81253l-35.68112 -22.848373l-49.086914 0.076934814l-36.31848 9.362778l-7.8396606 -15.040375l-2.859253 -17.640137l-15.909088 -9.242325l-28.722382 11.781158l-10.139008 29.192719l13.841217 32.631653l40.312714 34.781296l29.862701 14.724487l24.826813 47.630188l-0.6305237 65.67523l-17.256592 52.027313l-33.099915 45.941345z" fill-rule="evenodd"/><path stroke="#000000" stroke-width="4.0" stroke-linejoin="round" stroke-linecap="butt" d="m272.17847 499.9272l86.1568 -68.805725l18.74408 -40.04904l-14.556488 -37.042572l-41.501312 -30.9758l29.159576 43.779327l-36.803986 -15.886536l-33.549255 -43.08493l-6.545807 -46.00058l-7.877655 48.733032l-7.381958 -56.72075l25.142883 -67.292755l-38.863205 40.970352l17.135696 -58.33658l49.605072 -38.602676l-60.36093 2.7657166l38.037384 -18.228271l68.67578 4.0617447l-20.663422 -27.487991l-0.012145996 -33.465763l22.250977 -21.15783l-8.832977 31.698277l22.622406 31.24633l50.104553 20.115944l34.786194 8.968262l20.784302 33.79724l51.8804 14.406891l9.44989 33.331406l-16.612244 19.81253l-35.68112 -22.848373l-49.086914 0.076934814l-36.31848 9.362778l-7.8396606 -15.040375l-2.859253 -17.640137l-15.909088 -9.242325l-28.722382 11.781158l-10.139008 29.192719l13.841217 32.631653l40.312714 34.781296l29.862701 14.724487l24.826813 47.630188l-0.6305237 65.67523l-17.256592 52.027313l-33.099915 45.941345z" fill-rule="evenodd"/><defs><linearGradient id="p.3" gradientUnits="userSpaceOnUse" gradientTransform="matrix(16.457600206555153 -17.903013886614076 17.903013886614076 16.457600206555153 0.0 0.0)" spreadMethod="pad" x1="-10.608649950418073" y1="5.638407745546387" x2="-10.60871487750946" y2="23.541421632042727"><stop offset="0.0" stop-color="#ffc002"/><stop offset="1.0" stop-color="#795b04"/></linearGradient></defs><path fill="url(#p.3)" d="m198.99908 533.35657l57.621735 -94.013336l4.006134 -44.039093l-26.287598 -29.88446l-49.563583 -15.013702l42.311813 31.252594l-40.014145 -2.4212036l-46.203766 -29.106384l-21.800964 -41.03366l9.16626 48.50952l-26.2333 -50.83078l0.7578888 -71.83646l-22.613167 51.749115l-3.726097 -60.690125l33.52025 -53.17636l-55.823666 23.132904l29.571316 -30.080902l65.96516 -19.540497l-28.78109 -18.821762l-11.39341 -31.468018l13.729187 -27.466164l2.4741745 32.81453l31.901604 21.68985l53.960648 1.874382l35.763626 -3.398613l31.040573 24.714043l53.689026 -4.098633l20.223083 28.131393l-8.884003 24.282974l-41.325928 -9.350235l-46.135925 16.769424l-30.970047 21.15886l-12.4879 -11.477707l-8.688431 -15.6167145l-18.104553 -3.2801971l-23.004074 20.84932l0.39382935 30.902481l24.114777 25.979599l49.74008 18.996826l33.091248 3.6894226l39.546936 36.34787l21.743744 61.977325l1.4666138 54.79785l-15.5026245 54.463562z" fill-rule="evenodd"/><path stroke="#000000" stroke-width="4.0" stroke-linejoin="round" stroke-linecap="butt" d="m198.99908 533.35657l57.621735 -94.013336l4.006134 -44.039093l-26.287598 -29.88446l-49.563583 -15.013702l42.311813 31.252594l-40.014145 -2.4212036l-46.203766 -29.106384l-21.800964 -41.03366l9.16626 48.50952l-26.2333 -50.83078l0.7578888 -71.83646l-22.613167 51.749115l-3.726097 -60.690125l33.52025 -53.17636l-55.823666 23.132904l29.571316 -30.080902l65.96516 -19.540497l-28.78109 -18.821762l-11.39341 -31.468018l13.729187 -27.466164l2.4741745 32.81453l31.901604 21.68985l53.960648 1.874382l35.763626 -3.398613l31.040573 24.714043l53.689026 -4.098633l20.223083 28.131393l-8.884003 24.282974l-41.325928 -9.350235l-46.135925 16.769424l-30.970047 21.15886l-12.4879 -11.477707l-8.688431 -15.6167145l-18.104553 -3.2801971l-23.004074 20.84932l0.39382935 30.902481l24.114777 25.979599l49.74008 18.996826l33.091248 3.6894226l39.546936 36.34787l21.743744 61.977325l1.4666138 54.79785l-15.5026245 54.463562z" fill-rule="evenodd"/></g></svg>