<svg version="1.1" viewBox="0.0 0.0 960.0 720.0" fill="none" stroke="none" stroke-linecap="square" stroke-miterlimit="10" xmlns:xlink="http://www.w3.org/1999/xlink" xmlns="http://www.w3.org/2000/svg"><clipPath id="p.0"><path d="m0 0l960.0 0l0 720.0l-960.0 0l0 -720.0z" clip-rule="nonzero"/></clipPath><g clip-path="url(#p.0)"><path fill="#000000" fill-opacity="0.0" d="m0 0l960.0 0l0 720.0l-960.0 0z" fill-rule="evenodd"/><defs><radialGradient id="p.1" gradientUnits="userSpaceOnUse" gradientTransform="matrix(18.79201984467129 0.0 0.0 18.79201984467129 0.0 0.0)" spreadMethod="pad" cx="25.544767623134117" cy="15.124746488105663" fx="25.544767623134117" fy="15.124746488105663" r="18.792020797729492"><stop offset="0.0" stop-color="#f48208"/><stop offset="1.0" stop-color="#703e08"/></radialGradient></defs><path fill="url(#p.1)" d="m750.6158 66.66119c-23.652588 -9.156265 -509.6047 -25.238884 -540.3402 48.59984c-30.735504 73.83872 332.2746 385.27625 355.9272 394.4325c23.652527 9.1562805 -244.74734 -265.6562 -214.01184 -339.4949c30.735504 -73.83873 422.0774 -94.381165 398.42487 -103.53742z" fill-rule="evenodd"/><path stroke="#000000" stroke-width="3.0" stroke-linejoin="round" stroke-linecap="butt" d="m750.6158 66.66119c-23.652588 -9.156265 -509.6047 -25.238884 -540.3402 48.59984c-30.735504 73.83872 332.2746 385.27625 355.9272 394.4325c23.652527 9.1562805 -244.74734 -265.6562 -214.01184 -339.4949c30.735504 -73.83873 422.0774 -94.381165 398.42487 -103.53742z" fill-rule="evenodd"/><path fill="#000000" fill-opacity="0.0" d="m900.9449 382.5013l-841.8898 -340.9449" fill-rule="evenodd"/><path stroke="#000000" stroke-width="8.0" stroke-linejoin="round" stroke-linecap="butt" d="m900.9449 382.5013l-816.47784 -330.6537" fill-rule="evenodd"/><path fill="#000000" stroke="#000000" stroke-width="8.0" stroke-linecap="butt" d="m84.46704 51.84764l11.715836 -4.961796l-26.28772 -0.93946457l19.533684 17.617092z" fill-rule="evenodd"/><defs><linearGradient id="p.2" gradientUnits="userSpaceOnUse" gradientTransform="matrix(-10.626178518710741 1.1398159099419147 1.1398159099419147 10.626178518710741 0.0 0.0)" spreadMethod="pad" x1="-80.024230709943" y1="33.76053567606409" x2="-80.02426908365068" y2="44.38671419470554"><stop offset="0.0" stop-color="#db0000"/><stop offset="1.0" stop-color="#540303"/></linearGradient></defs><path fill="url(#p.2)" d="m896.4984 339.04855l-141.9502 -57.111206l-77.7298 8.337677l224.12598 90.17322z" fill-rule="evenodd"/><path stroke="#000000" stroke-width="3.0" stroke-linejoin="round" stroke-linecap="butt" d="m896.4984 339.04855l-141.9502 -57.111206l-77.7298 8.337677l224.12598 90.17322z" fill-rule="evenodd"/><defs><linearGradient id="p.3" gradientUnits="userSpaceOnUse" gradientTransform="matrix(-7.624379604189101 -9.48523274127081 9.48523274127081 -7.624379604189101 0.0 0.0)" spreadMethod="pad" x1="-70.93752534220884" y1="28.08934348199351" x2="-70.93755904115669" y2="37.57457622320446"><stop offset="0.0" stop-color="#db0000"/><stop offset="1.0" stop-color="#540303"/></linearGradient></defs><path fill="url(#p.3)" d="m864.27106 412.8917l-140.1549 -57.66977l-48.16681 -59.92273l221.29132 91.055115z" fill-rule="evenodd"/><path stroke="#000000" stroke-width="3.0" stroke-linejoin="round" stroke-linecap="butt" d="m864.27106 412.8917l-140.1549 -57.66977l-48.16681 -59.92273l221.29132 91.055115z" fill-rule="evenodd"/></g></svg>