<svg version="1.1" viewBox="0.0 0.0 960.0 720.0" fill="none" stroke="none" stroke-linecap="square" stroke-miterlimit="10" xmlns:xlink="http://www.w3.org/1999/xlink" xmlns="http://www.w3.org/2000/svg"><clipPath id="p.0"><path d="m0 0l960.0 0l0 720.0l-960.0 0l0 -720.0z" clip-rule="nonzero"/></clipPath><g clip-path="url(#p.0)"><path fill="#000000" fill-opacity="0.0" d="m0 0l960.0 0l0 720.0l-960.0 0z" fill-rule="evenodd"/><defs><radialGradient id="p.1" gradientUnits="userSpaceOnUse" gradientTransform="matrix(19.692380816059913 0.0 0.0 19.692380816059913 0.0 0.0)" spreadMethod="pad" cx="16.222636241531916" cy="17.352203521214555" fx="16.222636241531916" fy="17.352203521214555" r="19.692380905151367"><stop offset="0.0" stop-color="#696969"/><stop offset="1.0" stop-color="#1d1d1d"/></radialGradient></defs><path fill="url(#p.1)" d="m83.44183 487.4084l-3.2763443 -259.79065l21.305397 -83.846634l47.529907 -67.35668l99.983475 -34.36142l147.51338 -5.4992104l101.617065 54.98057l50.81082 78.35127l9.833618 93.47122l0 225.4292l-208.1578 158.07251l49.172638 -248.79605l101.62167 -67.352844l14.748138 -53.60672l-150.78973 52.23288l-21.30542 87.972015l13.109985 26.114532l-32.7818 26.118347l-42.61078 -27.492188l11.471771 -24.740692l-16.39087 -87.972015l-158.98518 -54.984406l16.390884 56.358246l106.53618 68.726685l45.89174 243.30069z" fill-rule="evenodd"/><path stroke="#000000" stroke-width="4.0" stroke-linejoin="round" stroke-linecap="butt" d="m83.44183 487.4084l-3.2763443 -259.79065l21.305397 -83.846634l47.529907 -67.35668l99.983475 -34.36142l147.51338 -5.4992104l101.617065 54.98057l50.81082 78.35127l9.833618 93.47122l0 225.4292l-208.1578 158.07251l49.172638 -248.79605l101.62167 -67.352844l14.748138 -53.60672l-150.78973 52.23288l-21.30542 87.972015l13.109985 26.114532l-32.7818 26.118347l-42.61078 -27.492188l11.471771 -24.740692l-16.39087 -87.972015l-158.98518 -54.984406l16.390884 56.358246l106.53618 68.726685l45.89174 243.30069z" fill-rule="evenodd"/></g></svg>