<svg version="1.1" viewBox="0.0 0.0 960.0 720.0" fill="none" stroke="none" stroke-linecap="square" stroke-miterlimit="10" xmlns:xlink="http://www.w3.org/1999/xlink" xmlns="http://www.w3.org/2000/svg"><clipPath id="p.0"><path d="m0 0l960.0 0l0 720.0l-960.0 0l0 -720.0z" clip-rule="nonzero"/></clipPath><g clip-path="url(#p.0)"><path fill="#000000" fill-opacity="0.0" d="m0 0l960.0 0l0 720.0l-960.0 0z" fill-rule="evenodd"/><defs><radialGradient id="p.1" gradientUnits="userSpaceOnUse" gradientTransform="matrix(22.20040866031613 0.0 0.0 22.20040866031613 0.0 0.0)" spreadMethod="pad" cx="14.333721128092757" cy="21.789501227660818" fx="14.333721128092757" fy="21.789501227660818" r="22.200408935546875"><stop offset="0.0" stop-color="#fce5cd"/><stop offset="0.42" stop-color="#f9cb9c"/><stop offset="1.0" stop-color="#fff2cc"/></radialGradient></defs><path fill="url(#p.1)" d="m127.633896 483.73584l-54.452362 -76.83896l-19.966232 -41.824738l-6.3517838 -60.30664l4.538147 -66.14087l18.149887 -71.97514l50.822388 -94.34753l18.149895 69.05802l22.688034 109.90939l46.284225 79.75897l68.0668 68.087585l42.65158 67.11133z" fill-rule="evenodd"/><path stroke="#000000" stroke-width="4.0" stroke-linejoin="round" stroke-linecap="butt" d="m127.633896 483.73584l-54.452362 -76.83896l-19.966232 -41.824738l-6.3517838 -60.30664l4.538147 -66.14087l18.149887 -71.97514l50.822388 -94.34753l18.149895 69.05802l22.688034 109.90939l46.284225 79.75897l68.0668 68.087585l42.65158 67.11133z" fill-rule="evenodd"/><defs><radialGradient id="p.2" gradientUnits="userSpaceOnUse" gradientTransform="matrix(-22.20040866031613 0.0 0.0 22.20040866031613 0.0 0.0)" spreadMethod="pad" cx="-23.376208807322637" cy="21.789501227660818" fx="-23.376208807322637" fy="21.789501227660818" r="22.200408935546875"><stop offset="0.0" stop-color="#fce5cd"/><stop offset="0.42" stop-color="#f9cb9c"/><stop offset="1.0" stop-color="#fff2cc"/></radialGradient></defs><path fill="url(#p.2)" d="m709.54193 483.73584l54.452393 -76.83896l19.966248 -41.824738l6.3517456 -60.30664l-4.538147 -66.14087l-18.149841 -71.97514l-50.822388 -94.34753l-18.149902 69.05802l-22.68805 109.90939l-46.28424 79.75897l-68.06677 68.087585l-42.65161 67.11133z" fill-rule="evenodd"/><path stroke="#000000" stroke-width="4.0" stroke-linejoin="round" stroke-linecap="butt" d="m709.54193 483.73584l54.452393 -76.83896l19.966248 -41.824738l6.3517456 -60.30664l-4.538147 -66.14087l-18.149841 -71.97514l-50.822388 -94.34753l-18.149902 69.05802l-22.68805 109.90939l-46.28424 79.75897l-68.06677 68.087585l-42.65161 67.11133z" fill-rule="evenodd"/><defs><radialGradient id="p.3" gradientUnits="userSpaceOnUse" gradientTransform="matrix(11.060746836035355 0.0 0.0 11.060746836035355 0.0 0.0)" spreadMethod="pad" cx="25.734326517295283" cy="9.072971405224806" fx="25.734326517295283" fy="9.072971405224806" r="11.060747146606445"><stop offset="0.0" stop-color="#db0000"/><stop offset="1.0" stop-color="#540303"/></radialGradient></defs><path fill="url(#p.3)" d="m236.54164 168.43996l-53.54419 -77.812294l5.443619 -58.359947l128.87094 39.878044l68.97229 80.73232z" fill-rule="evenodd"/><path stroke="#000000" stroke-width="4.0" stroke-linejoin="round" stroke-linecap="butt" d="m236.54164 168.43996l-53.54419 -77.812294l5.443619 -58.359947l128.87094 39.878044l68.97229 80.73232z" fill-rule="evenodd"/><defs><radialGradient id="p.4" gradientUnits="userSpaceOnUse" gradientTransform="matrix(-11.060746836035355 0.0 0.0 11.060746836035355 0.0 0.0)" spreadMethod="pad" cx="-49.954337582766755" cy="9.072971405224806" fx="-49.954337582766755" fy="9.072971405224806" r="11.060747146606445"><stop offset="0.0" stop-color="#db0000"/><stop offset="1.0" stop-color="#540303"/></radialGradient></defs><path fill="url(#p.4)" d="m600.63153 168.43996l53.54419 -77.812294l-5.4436035 -58.359947l-128.87097 39.878044l-68.97229 80.73232z" fill-rule="evenodd"/><path stroke="#000000" stroke-width="4.0" stroke-linejoin="round" stroke-linecap="butt" d="m600.63153 168.43996l53.54419 -77.812294l-5.4436035 -58.359947l-128.87097 39.878044l-68.97229 80.73232z" fill-rule="evenodd"/></g></svg>