<svg version="1.1" viewBox="0.0 0.0 960.0 720.0" fill="none" stroke="none" stroke-linecap="square" stroke-miterlimit="10" xmlns:xlink="http://www.w3.org/1999/xlink" xmlns="http://www.w3.org/2000/svg"><clipPath id="p.0"><path d="m0 0l960.0 0l0 720.0l-960.0 0l0 -720.0z" clip-rule="nonzero"/></clipPath><g clip-path="url(#p.0)"><path fill="#000000" fill-opacity="0.0" d="m0 0l960.0 0l0 720.0l-960.0 0z" fill-rule="evenodd"/><defs><linearGradient id="p.1" gradientUnits="userSpaceOnUse" gradientTransform="matrix(8.961022663875148 1.0775267516567986 -1.0775267516567986 8.961022663875148 0.0 0.0)" spreadMethod="pad" x1="12.332533138065195" y1="2.4468200576803105" x2="12.332501331392079" y2="11.40784272149901"><stop offset="0.0" stop-color="#f2f2f2"/><stop offset="1.0" stop-color="#a6a6a6"/></linearGradient></defs><path fill="url(#p.1)" d="m107.87553 35.21522l29.443718 46.84863l67.10535 46.221413l40.252457 -1.3462677l14.806992 -8.531258l-43.138565 -37.153038l-29.408386 -15.909172z" fill-rule="evenodd"/><path stroke="#000000" stroke-width="4.0" stroke-linejoin="round" stroke-linecap="butt" d="m107.87553 35.21522l29.443718 46.84863l67.10535 46.221413l40.252457 -1.3462677l14.806992 -8.531258l-43.138565 -37.153038l-29.408386 -15.909172z" fill-rule="evenodd"/><defs><linearGradient id="p.2" gradientUnits="userSpaceOnUse" gradientTransform="matrix(8.372632873248632 1.0072523672333047 -1.0072523672333047 8.372632873248632 0.0 0.0)" spreadMethod="pad" x1="24.058844682655952" y1="9.300019107212778" x2="24.05881550408292" y2="17.672651980410567"><stop offset="0.0" stop-color="#f2f2f2"/><stop offset="1.0" stop-color="#a6a6a6"/></linearGradient></defs><path fill="url(#p.2)" d="m260.87598 181.49226l-39.70735 -17.328674l-31.45642 -42.478943l43.102875 -0.043762207l19.760818 -12.262032l66.370575 23.672066l44.156708 34.59375l-34.290375 13.652756l-22.752808 4.582428z" fill-rule="evenodd"/><path stroke="#000000" stroke-width="4.0" stroke-linejoin="round" stroke-linecap="butt" d="m260.87598 181.49226l-39.70735 -17.328674l-31.45642 -42.478943l43.102875 -0.043762207l19.760818 -12.262032l66.370575 23.672066l44.156708 34.59375l-34.290375 13.652756l-22.752808 4.582428z" fill-rule="evenodd"/><defs><linearGradient id="p.3" gradientUnits="userSpaceOnUse" gradientTransform="matrix(10.650427959131404 1.280966907930556 -1.280966907930556 10.650427959131404 0.0 0.0)" spreadMethod="pad" x1="25.157506341470096" y1="10.393307226316747" x2="25.157468111030543" y2="21.043735185379536"><stop offset="0.0" stop-color="#f2f2f2"/><stop offset="1.0" stop-color="#a6a6a6"/></linearGradient></defs><path fill="url(#p.3)" d="m250.48575 177.33209l8.931122 42.449112l57.04361 39.186172l82.246765 16.353546l94.375824 -26.143524l-45.98065 -49.489777l-27.211487 -18.791153l-64.26532 -25.828705l-50.109283 19.83342l-27.511566 7.0330048z" fill-rule="evenodd"/><path stroke="#000000" stroke-width="4.0" stroke-linejoin="round" stroke-linecap="butt" d="m250.48575 177.33209l8.931122 42.449112l57.04361 39.186172l82.246765 16.353546l94.375824 -26.143524l-45.98065 -49.489777l-27.211487 -18.791153l-64.26532 -25.828705l-50.109283 19.83342l-27.511566 7.0330048z" fill-rule="evenodd"/><defs><linearGradient id="p.4" gradientUnits="userSpaceOnUse" gradientTransform="matrix(11.118895774253124 1.3373112887843615 -1.3373112887843615 11.118895774253124 0.0 0.0)" spreadMethod="pad" x1="30.839383756213586" y1="16.30578772837989" x2="30.839343474552024" y2="27.424683502560047"><stop offset="0.0" stop-color="#f2f2f2"/><stop offset="1.0" stop-color="#a6a6a6"/></linearGradient></defs><path fill="url(#p.4)" d="m316.3417 262.05643l26.149292 50.985077l66.72778 40.34729l74.10251 14.085358l64.4043 -10.353119l71.779175 -24.984467l-33.217346 -38.90506l-25.372925 -22.446869l-66.87738 -27.438782l-97.29898 27.08786z" fill-rule="evenodd"/><path stroke="#000000" stroke-width="4.0" stroke-linejoin="round" stroke-linecap="butt" d="m316.3417 262.05643l26.149292 50.985077l66.72778 40.34729l74.10251 14.085358l64.4043 -10.353119l71.779175 -24.984467l-33.217346 -38.90506l-25.372925 -22.446869l-66.87738 -27.438782l-97.29898 27.08786z" fill-rule="evenodd"/><defs><linearGradient id="p.5" gradientUnits="userSpaceOnUse" gradientTransform="matrix(12.872017316100202 1.5481657905525759 -1.5481657905525759 12.872017316100202 0.0 0.0)" spreadMethod="pad" x1="34.26346575623023" y1="18.785860981074027" x2="34.26341830789339" y2="31.657878297086775"><stop offset="0.0" stop-color="#f2f2f2"/><stop offset="1.0" stop-color="#a6a6a6"/></linearGradient></defs><path fill="url(#p.5)" d="m404.59808 356.03616l50.599396 69.44049l90.40787 53.540894l117.58923 -20.766968l88.37421 -46.26056l-51.209045 -52.706818l-86.40552 -40.129395l-99.75464 35.842133l-31.510712 5.2597046z" fill-rule="evenodd"/><path stroke="#000000" stroke-width="4.0" stroke-linejoin="round" stroke-linecap="butt" d="m404.59808 356.03616l50.599396 69.44049l90.40787 53.540894l117.58923 -20.766968l88.37421 -46.26056l-51.209045 -52.706818l-86.40552 -40.129395l-99.75464 35.842133l-31.510712 5.2597046z" fill-rule="evenodd"/></g></svg>