<svg version="1.1" viewBox="0.0 0.0 960.0 720.0" fill="none" stroke="none" stroke-linecap="square" stroke-miterlimit="10" xmlns:xlink="http://www.w3.org/1999/xlink" xmlns="http://www.w3.org/2000/svg"><clipPath id="p.0"><path d="m0 0l960.0 0l0 720.0l-960.0 0l0 -720.0z" clip-rule="nonzero"/></clipPath><g clip-path="url(#p.0)"><path fill="#000000" fill-opacity="0.0" d="m0 0l960.0 0l0 720.0l-960.0 0z" fill-rule="evenodd"/><path fill="#f1c232" d="m112.031494 550.3018l173.4378 -118.11023l248.43152 0l173.43774 118.11023z" fill-rule="evenodd"/><path stroke="#000000" stroke-width="4.0" stroke-linejoin="round" stroke-linecap="butt" d="m112.031494 550.3018l173.4378 -118.11023l248.43152 0l173.43774 118.11023z" fill-rule="evenodd"/><defs><linearGradient id="p.1" gradientUnits="userSpaceOnUse" gradientTransform="matrix(21.564084432994644 0.0 0.0 21.564084432994644 0.0 0.0)" spreadMethod="pad" x1="7.064823789124662" y1="1.2607589739270515" x2="7.064745815471229" y2="22.824843406780726"><stop offset="0.0" stop-color="#dfe9fb"/><stop offset="1.0" stop-color="#6e9be7"/></linearGradient></defs><path fill="url(#p.1)" d="m152.34645 259.6929l0 0c0 -128.40837 115.2144 -232.50392 257.33856 -232.50392l0 0c142.12418 0 257.3386 104.09555 257.3386 232.50392l0 0c0 128.40839 -115.21442 232.50394 -257.3386 232.50394l0 0c-142.12418 0 -257.33856 -104.09555 -257.33856 -232.50394z" fill-rule="evenodd"/><path stroke="#000000" stroke-width="3.0" stroke-linejoin="round" stroke-linecap="butt" d="m152.34645 259.6929l0 0c0 -128.40837 115.2144 -232.50392 257.33856 -232.50392l0 0c142.12418 0 257.3386 104.09555 257.3386 232.50392l0 0c0 128.40839 -115.21442 232.50394 -257.3386 232.50394l0 0c-142.12418 0 -257.33856 -104.09555 -257.33856 -232.50394z" fill-rule="evenodd"/></g></svg>